<?xml version="1.0" standalone="no"?>
<!DOCTYPE svg PUBLIC "-//W3C//DTD SVG 20010904//EN"
 "http://www.w3.org/TR/2001/REC-SVG-20010904/DTD/svg10.dtd">
<svg version="1.0" xmlns="http://www.w3.org/2000/svg"
 width="225.000000pt" height="225.000000pt" viewBox="0 0 225.000000 225.000000"
 preserveAspectRatio="xMidYMid meet">
<metadata>
Created by potrace 1.14, written by Peter Selinger 2001-2017
</metadata>
<g transform="translate(0.000000,225.000000) scale(0.100000,-0.100000)"
fill="#000000" stroke="none">
<path d="M1035 2132 c-2 -2 -21 -5 -42 -7 -21 -2 -67 -11 -103 -20 -36 -9 -69
-18 -75 -20 -48 -11 -191 -82 -260 -130 -70 -47 -265 -240 -265 -260 0 -8 -33
-59 -43 -66 -5 -3 -7 -8 -6 -10 2 -2 -11 -33 -28 -69 -30 -63 -43 -94 -48
-115 -2 -5 -10 -39 -20 -75 -20 -78 -27 -139 -27 -245 0 -81 9 -153 27 -225 3
-14 8 -36 11 -50 10 -46 73 -182 121 -259 56 -90 242 -281 273 -281 6 0 10 -4
10 -10 0 -5 6 -10 14 -10 8 0 21 -7 29 -15 21 -21 128 -73 187 -91 174 -54
290 -67 445 -52 57 6 142 23 175 35 8 3 21 7 28 9 39 8 185 76 202 94 3 3 17
11 32 19 15 8 37 22 47 33 11 10 23 18 27 18 7 0 167 162 192 193 6 9 12 20
12 25 0 4 9 18 19 29 45 48 131 257 147 358 2 11 5 36 8 55 12 76 7 255 -9
328 -3 12 -7 32 -10 44 -9 40 -48 153 -69 198 -69 146 -231 329 -368 414 -131
81 -287 138 -415 152 -69 7 -213 11 -218 6z"/>
</g>
</svg>
